<mxfile host="app.diagrams.net" modified="2023-11-23T03:38:22.797Z" agent="Mozilla/5.0 (Macintosh; Intel Mac OS X 10_15_7) AppleWebKit/537.36 (KHTML, like Gecko) Chrome/119.0.0.0 Safari/537.36" etag="byculOWR35zSytCNfWlf" version="22.1.3" type="github">
  <diagram name="第 1 页" id="iitQaWTlGbYpa34RNPeF">
    <mxGraphModel dx="989" dy="1394" grid="1" gridSize="10" guides="1" tooltips="1" connect="1" arrows="1" fold="1" page="1" pageScale="1" pageWidth="1169" pageHeight="827" math="0" shadow="0">
      <root>
        <mxCell id="0" />
        <mxCell id="1" parent="0" />
        <mxCell id="8jJ2_m_tyTiKnN_H3z05-1" value="" style="rounded=1;whiteSpace=wrap;html=1;fillColor=#e1d5e7;strokeColor=#9673a6;opacity=80;" vertex="1" parent="1">
          <mxGeometry x="120" y="-280" width="100" height="280" as="geometry" />
        </mxCell>
        <mxCell id="8jJ2_m_tyTiKnN_H3z05-2" value="" style="rounded=1;whiteSpace=wrap;html=1;fillColor=#fff2cc;strokeColor=#d6b656;opacity=80;" vertex="1" parent="1">
          <mxGeometry x="700" y="-280" width="160" height="280" as="geometry" />
        </mxCell>
        <mxCell id="8jJ2_m_tyTiKnN_H3z05-3" value="" style="rounded=1;whiteSpace=wrap;html=1;fillColor=#d5e8d4;strokeColor=#82b366;opacity=80;" vertex="1" parent="1">
          <mxGeometry x="280" y="-280" width="400" height="280" as="geometry" />
        </mxCell>
        <mxCell id="8jJ2_m_tyTiKnN_H3z05-8" value="排序" style="html=1;shadow=0;dashed=0;align=center;verticalAlign=middle;shape=mxgraph.arrows2.arrow;dy=0;dx=12;notch=0;fillColor=#d5e8d4;strokeColor=#82b366;direction=east;whiteSpace=wrap;" vertex="1" parent="1">
          <mxGeometry x="220" y="-190" width="60" height="30" as="geometry" />
        </mxCell>
        <mxCell id="8jJ2_m_tyTiKnN_H3z05-9" value="前置过滤器" style="html=1;shadow=0;dashed=0;align=center;verticalAlign=middle;shape=mxgraph.arrows2.arrow;dy=0;dx=12;notch=0;fillColor=#d5e8d4;strokeColor=#82b366;direction=north;whiteSpace=wrap;" vertex="1" parent="1">
          <mxGeometry x="300" y="-160" width="30" height="100" as="geometry" />
        </mxCell>
        <mxCell id="8jJ2_m_tyTiKnN_H3z05-10" value="过滤器" style="html=1;shadow=0;dashed=0;align=center;verticalAlign=middle;shape=mxgraph.arrows2.arrow;dy=0;dx=12;notch=0;fillColor=#d5e8d4;strokeColor=#82b366;direction=north;whiteSpace=wrap;" vertex="1" parent="1">
          <mxGeometry x="615" y="-15" width="30" height="100" as="geometry" />
        </mxCell>
        <mxCell id="8jJ2_m_tyTiKnN_H3z05-11" value="归一化评分" style="html=1;shadow=0;dashed=0;align=center;verticalAlign=middle;shape=mxgraph.arrows2.arrow;dy=0;dx=12;notch=0;fillColor=#d5e8d4;strokeColor=#82b366;direction=north;whiteSpace=wrap;" vertex="1" parent="1">
          <mxGeometry x="655" y="215" width="30" height="100" as="geometry" />
        </mxCell>
        <mxCell id="8jJ2_m_tyTiKnN_H3z05-12" value="评分" style="html=1;shadow=0;dashed=0;align=center;verticalAlign=middle;shape=mxgraph.arrows2.arrow;dy=0;dx=12;notch=0;fillColor=#d5e8d4;strokeColor=#82b366;direction=north;whiteSpace=wrap;" vertex="1" parent="1">
          <mxGeometry x="645" y="145" width="30" height="100" as="geometry" />
        </mxCell>
        <mxCell id="8jJ2_m_tyTiKnN_H3z05-13" value="前置评分" style="html=1;shadow=0;dashed=0;align=center;verticalAlign=middle;shape=mxgraph.arrows2.arrow;dy=0;dx=12;notch=0;fillColor=#d5e8d4;strokeColor=#82b366;direction=north;whiteSpace=wrap;" vertex="1" parent="1">
          <mxGeometry x="635" y="95" width="30" height="100" as="geometry" />
        </mxCell>
        <mxCell id="8jJ2_m_tyTiKnN_H3z05-14" value="后置过滤器" style="html=1;shadow=0;dashed=0;align=center;verticalAlign=middle;shape=mxgraph.arrows2.arrow;dy=0;dx=12;notch=0;fillColor=#d5e8d4;strokeColor=#82b366;direction=north;whiteSpace=wrap;" vertex="1" parent="1">
          <mxGeometry x="615" y="45" width="30" height="100" as="geometry" />
        </mxCell>
        <mxCell id="8jJ2_m_tyTiKnN_H3z05-16" value="" style="endArrow=block;html=1;rounded=0;strokeWidth=6;endSize=3;endFill=1;" edge="1" parent="1">
          <mxGeometry width="50" height="50" relative="1" as="geometry">
            <mxPoint x="120" y="-160" as="sourcePoint" />
            <mxPoint x="220" y="-160" as="targetPoint" />
          </mxGeometry>
        </mxCell>
        <mxCell id="8jJ2_m_tyTiKnN_H3z05-17" value="" style="endArrow=block;html=1;rounded=0;strokeWidth=6;endSize=3;endFill=1;" edge="1" parent="1">
          <mxGeometry width="50" height="50" relative="1" as="geometry">
            <mxPoint x="120" y="-140.43" as="sourcePoint" />
            <mxPoint x="170" y="-140.43" as="targetPoint" />
          </mxGeometry>
        </mxCell>
        <mxCell id="8jJ2_m_tyTiKnN_H3z05-7" value="预&lt;br&gt;进&lt;br&gt;入&lt;br&gt;队&lt;br&gt;列" style="html=1;shadow=0;dashed=0;align=center;verticalAlign=middle;shape=mxgraph.arrows2.arrow;dy=0;dx=12;notch=0;fillColor=#ffe6cc;strokeColor=#d79b00;rotation=0;direction=north;whiteSpace=wrap;" vertex="1" parent="1">
          <mxGeometry x="170" y="-160" width="30" height="100" as="geometry" />
        </mxCell>
        <mxCell id="8jJ2_m_tyTiKnN_H3z05-18" value="" style="endArrow=block;html=1;rounded=0;strokeWidth=6;endSize=3;endFill=1;" edge="1" parent="1">
          <mxGeometry width="50" height="50" relative="1" as="geometry">
            <mxPoint x="280" y="-160" as="sourcePoint" />
            <mxPoint x="860" y="-160" as="targetPoint" />
          </mxGeometry>
        </mxCell>
        <mxCell id="8jJ2_m_tyTiKnN_H3z05-19" value="" style="endArrow=block;html=1;rounded=0;strokeWidth=6;endSize=3;endFill=1;" edge="1" parent="1">
          <mxGeometry width="50" height="50" relative="1" as="geometry">
            <mxPoint x="280" y="-175.43" as="sourcePoint" />
            <mxPoint x="325" y="-175.43" as="targetPoint" />
          </mxGeometry>
        </mxCell>
      </root>
    </mxGraphModel>
  </diagram>
</mxfile>
